HIERARCHY
ROOT Hips
{
	OFFSET 0.000000 0.000000 0.000000
	CHANNELS 6 Xposition Yposition Zposition Zrotation Yrotation Xrotation 
	JOINT LHipJoint
	{
		OFFSET 0.000000 0.000000 0.000000
		CHANNELS 3 Zrotation Yrotation Xrotation
		JOINT LeftUpLeg
		{
			OFFSET 1.363060 -1.794630 0.839290
			CHANNELS 3 Zrotation Yrotation Xrotation
			JOINT LeftLeg
			{
				OFFSET 2.448110 -6.726130 0.000000
				CHANNELS 3 Zrotation Yrotation Xrotation
				JOINT LeftFoot
				{
					OFFSET 2.562200 -7.039590 0.000000
					CHANNELS 3 Zrotation Yrotation Xrotation
					JOINT LeftToeBase
					{
						OFFSET 0.157640 -0.433110 2.322550
						CHANNELS 3 Zrotation Yrotation Xrotation
						End Site
						{
							OFFSET 0.000000 0.000000 0.000000
						}
					}
				}
			}
		}
	}
	JOINT RHipJoint
	{
		OFFSET 0.000000 0.000000 0.000000
		CHANNELS 3 Zrotation Yrotation Xrotation
		JOINT RightUpLeg
		{
			OFFSET -1.305520 -1.794630 0.839290
			CHANNELS 3 Zrotation Yrotation Xrotation
			JOINT RightLeg
			{
				OFFSET -2.542530 -6.985550 0.000000
				CHANNELS 3 Zrotation Yrotation Xrotation
				JOINT RightFoot
				{
					OFFSET -2.568260 -7.056230 0.000000
					CHANNELS 3 Zrotation Yrotation Xrotation
					JOINT RightToeBase
					{
						OFFSET -0.164730 -0.452590 2.363150
						CHANNELS 3 Zrotation Yrotation Xrotation
						End Site
						{
							OFFSET 0.000000 0.000000 0.000000
						}
					}
				}
			}
		}
	}
	JOINT LowerBack
	{
		OFFSET 0.000000 0.000000 0.000000
		CHANNELS 3 Zrotation Yrotation Xrotation
		JOINT Spine
		{
			OFFSET 0.028270 2.035590 -0.193380
			CHANNELS 3 Zrotation Yrotation Xrotation
			JOINT Spine1
			{
				OFFSET 0.056720 2.048850 -0.042750
				CHANNELS 3 Zrotation Yrotation Xrotation
				JOINT Neck
				{
					OFFSET 0.000000 0.000000 0.000000
					CHANNELS 3 Zrotation Yrotation Xrotation
					JOINT Neck1
					{
						OFFSET -0.054170 1.746240 0.172020
						CHANNELS 3 Zrotation Yrotation Xrotation
						JOINT Head
						{
							OFFSET 0.104070 1.761360 -0.123970
							CHANNELS 3 Zrotation Yrotation Xrotation
							End Site
							{
								OFFSET 0.000000 0.000000 0.000000
							}
						}
					}
				}
				JOINT LeftShoulder
				{
					OFFSET 0.000000 0.000000 0.000000
					CHANNELS 3 Zrotation Yrotation Xrotation
					JOINT LeftArm
					{
						OFFSET 3.362410 1.200890 -0.311210
						CHANNELS 3 Zrotation Yrotation Xrotation
						JOINT LeftForeArm
						{
							OFFSET 4.983000 -0.000000 -0.000000
							CHANNELS 3 Zrotation Yrotation Xrotation
							JOINT LeftHand
							{
								OFFSET 3.483560 -0.000000 -0.000000
								CHANNELS 3 Zrotation Yrotation Xrotation
								JOINT LeftFingerBase
								{
									OFFSET 0.000000 0.000000 0.000000
									CHANNELS 3 Zrotation Yrotation Xrotation
									JOINT LeftHandIndex1
									{
										OFFSET 0.715260 -0.000000 -0.000000
										CHANNELS 3 Zrotation Yrotation Xrotation
										End Site
										{
											OFFSET 0.000000 0.000000 0.000000
										}
									}
								}
								JOINT LThumb
								{
									OFFSET 0.000000 0.000000 0.000000
									CHANNELS 3 Zrotation Yrotation Xrotation
									End Site
									{
										OFFSET 0.000000 0.000000 0.000000
									}
								}
							}
						}
					}
				}
				JOINT RightShoulder
				{
					OFFSET 0.000000 0.000000 0.000000
					CHANNELS 3 Zrotation Yrotation Xrotation
					JOINT RightArm
					{
						OFFSET -3.136600 1.374050 -0.404650
						CHANNELS 3 Zrotation Yrotation Xrotation
						JOINT RightForeArm
						{
							OFFSET -5.241900 -0.000000 -0.000000
							CHANNELS 3 Zrotation Yrotation Xrotation
							JOINT RightHand
							{
								OFFSET -3.444170 -0.000000 -0.000000
								CHANNELS 3 Zrotation Yrotation Xrotation
								JOINT RightFingerBase
								{
									OFFSET 0.000000 0.000000 0.000000
									CHANNELS 3 Zrotation Yrotation Xrotation
									JOINT RightHandIndex1
									{
										OFFSET -0.622530 -0.000000 -0.000000
										CHANNELS 3 Zrotation Yrotation Xrotation
										End Site
										{
											OFFSET 0.000000 0.000000 0.000000
										}
									}
								}
								JOINT RThumb
								{
									OFFSET 0.000000 0.000000 0.000000
									CHANNELS 3 Zrotation Yrotation Xrotation
									End Site
									{
										OFFSET 0.000000 0.000000 0.000000
									}
								}
							}
						}
					}
				}
			}
		}
	}
}
MOTION
Frames: 11
Frame Time: 0.008333
-0.526709 18.312677 5.635386 0.064080 -3.007820 1.473243 0.214574 3.623848 3.422110 -14.520709 -9.324188 -3.787928 0.575258 6.627393 21.839820 -1.311585 11.085593 -19.381788 7.825300 -15.989200 -51.930900 -4.540236 -4.260657 1.945349 2.927937 1.877105 -1.665410 0.050689 0.692709 1.408941 0.299876 -0.879528 5.687146 0.000000 0.000000 0.000000 5.332974 3.068785 -6.210036 -10.770836 3.670518 20.317420 0.676788 2.292394 -13.527632 -2.212830 -4.143298 -25.878997 8.904965 -6.557106 27.316773 1.386400 -1.946300 9.243600 4.299227 -7.347222 0.373198 -92.333874 7.291996 28.896929 23.776854 -32.807985 -5.919200 0.545192 0.143333 10.663257 9.169108 -23.545774 -3.521000 -7.125000 0.000000 0.000000 -12.693700 6.393800 11.493800 -3.202264 8.936703 2.707892 95.474470 -10.862870 23.836330 -31.672212 39.825294 -8.964629 0.696055 -3.211683 20.332232 -7.498798 -32.726188 4.682400 7.125000 0.000000 0.000000 24.366200 -58.404400 -8.304800 
-0.526611 18.313559 5.632445 0.042384 -3.025188 1.471785 0.226080 3.626097 3.423111 -14.507501 -9.348787 -3.796656 0.578560 6.632960 21.857729 -1.304464 11.059468 -19.384467 7.807600 -15.975900 -51.866600 -4.528437 -4.259009 1.949146 2.929327 1.876862 -1.665444 0.050439 0.692465 1.408787 0.299784 -0.879915 5.687367 0.000000 0.000000 0.000000 5.291276 3.066841 -6.193018 -10.650320 3.664406 20.337437 0.649493 2.292959 -13.548811 -2.234450 -4.126896 -25.878925 8.926268 -6.530661 27.312470 1.397200 -1.932100 9.240000 4.278018 -7.341383 0.371062 -92.327333 7.283921 28.951661 23.883256 -32.915268 -5.956739 0.533299 0.149071 10.881328 9.004927 -23.242894 -3.418100 -7.125000 0.000000 0.000000 -12.781400 6.702500 11.499400 -3.212803 8.935706 2.706543 95.457839 -10.852390 23.829394 -31.646813 39.803493 -8.954810 0.691315 -3.212214 20.343637 -7.551935 -32.734669 4.708300 7.125000 0.000000 0.000000 24.320200 -58.420200 -8.297300 
-0.526709 18.314637 5.629504 0.016161 -3.041311 1.492992 0.245552 3.628862 3.426752 -14.501626 -9.412971 -3.809131 0.578285 6.631857 21.859942 -1.306003 11.069889 -19.399551 7.774100 -15.950600 -51.744800 -4.507569 -4.259370 1.960586 2.931685 1.876284 -1.665174 0.050031 0.692067 1.408396 0.299626 -0.880634 5.687836 0.000000 0.000000 0.000000 5.203957 3.065475 -6.236274 -10.444890 3.650535 20.407784 0.622213 2.295148 -13.555040 -2.238652 -4.114898 -25.900736 8.855175 -6.493766 27.304776 1.387100 -1.924100 9.237500 4.246100 -7.332942 0.363163 -92.339817 7.229606 28.942920 23.876703 -32.908112 -5.955119 0.534032 0.144112 10.912127 8.972763 -23.350888 -3.418600 -7.125000 0.000000 0.000000 -12.803500 6.604300 11.545300 -3.238698 8.935053 2.703131 95.411971 -10.837418 23.867532 -31.630474 39.788571 -8.951515 0.677927 -3.211131 20.289731 -7.793562 -32.727176 4.820500 7.125000 0.000000 0.000000 24.076600 -58.453400 -8.227200 
-0.525631 18.314735 5.626858 0.020977 -3.045734 1.485745 0.249380 3.631654 3.432713 -14.514932 -9.417630 -3.817374 0.577980 6.632528 21.865209 -1.316818 11.115614 -19.412216 7.778400 -15.953800 -51.760500 -4.502603 -4.261027 1.968339 2.931243 1.876649 -1.663614 0.049910 0.692964 1.408593 0.299875 -0.879876 5.688400 0.000000 0.000000 0.000000 5.183298 3.067646 -6.250577 -10.398434 3.655246 20.486514 0.619010 2.299109 -13.572057 -2.197642 -4.116438 -25.914487 8.760098 -6.484422 27.298969 1.363000 -1.929800 9.237000 4.243787 -7.326519 0.355509 -92.329689 7.157474 28.959811 23.864926 -32.897850 -5.948886 0.532559 0.143517 10.880355 8.921768 -23.334982 -3.395900 -7.125000 0.000000 0.000000 -12.833800 6.626200 11.568500 -3.259119 8.932167 2.697586 95.393491 -10.827145 23.907575 -31.609975 39.768510 -8.935918 0.672491 -3.208068 20.242727 -7.917425 -32.601092 4.859900 7.125000 0.000000 0.000000 23.861100 -58.362300 -8.095100 
-0.524258 18.314637 5.624407 0.045795 -3.029891 1.468308 0.242411 3.633158 3.438105 -14.530009 -9.377965 -3.834404 0.579381 6.632335 21.865145 -1.313240 11.090674 -19.381276 7.799700 -15.970000 -51.838200 -4.508950 -4.262807 1.971225 2.929226 1.877491 -1.661728 0.049999 0.694391 1.409100 0.300298 -0.878433 5.688856 0.000000 0.000000 0.000000 5.208740 3.069901 -6.242988 -10.461514 3.668106 20.542982 0.625868 2.301831 -13.588465 -2.181745 -4.131909 -25.919012 8.745096 -6.507458 27.284818 1.354600 -1.942400 9.237300 4.261370 -7.324841 0.351615 -92.288549 7.123767 29.033706 23.902247 -32.938373 -5.962940 0.529157 0.146773 10.778011 8.824750 -23.247101 -3.346100 -7.125000 0.000000 0.000000 -12.890000 6.720500 11.597800 -3.265583 8.928492 2.691845 95.403701 -10.827154 23.904905 -31.588771 39.745973 -8.915463 0.666277 -3.202911 20.313694 -7.996213 -32.393751 4.866900 7.125000 0.000000 0.000000 23.631900 -58.194100 -7.914600 
-0.523964 18.314245 5.622348 0.063854 -3.009260 1.465644 0.238325 3.632015 3.435529 -14.534945 -9.334531 -3.865156 0.582717 6.635143 21.870643 -1.313691 11.062405 -19.302326 7.808800 -15.976800 -51.871000 -4.514804 -4.262402 1.967879 2.928475 1.877692 -1.661654 0.050107 0.694587 1.409242 0.300344 -0.878151 5.688759 0.000000 0.000000 0.000000 5.221208 3.067007 -6.213953 -10.513849 3.668994 20.516770 0.635490 2.300946 -13.595064 -2.175476 -4.140507 -25.902842 8.765639 -6.526939 27.291773 1.355900 -1.948600 9.236900 4.266381 -7.326076 0.356075 -92.219324 7.158048 29.147089 23.982914 -33.016937 -5.995549 0.525623 0.152568 10.666221 8.743273 -23.131583 -3.299800 -7.125000 0.000000 0.000000 -12.936200 6.837900 11.611400 -3.259029 8.928944 2.692559 95.410649 -10.832819 23.916741 -31.552315 39.713605 -8.898172 0.652813 -3.201351 20.343688 -8.185907 -32.318531 4.944000 7.125000 0.000000 0.000000 23.390500 -58.159000 -7.807900 
-0.523180 18.314245 5.621368 0.067034 -2.990855 1.462031 0.243701 3.632389 3.434026 -14.548081 -9.339470 -3.869983 0.584577 6.639162 21.883243 -1.323602 11.090952 -19.277589 7.804100 -15.973300 -51.854100 -4.510420 -4.261738 1.968782 2.929130 1.877475 -1.661880 0.050025 0.694309 1.409125 0.300242 -0.878471 5.688754 0.000000 0.000000 0.000000 5.204262 3.051797 -6.202167 -10.473444 3.645925 20.499317 0.633555 2.291417 -13.596807 -2.158620 -4.132460 -25.861716 8.740701 -6.513926 27.294948 1.351000 -1.945200 9.229600 4.255340 -7.325517 0.357166 -92.198502 7.163183 29.157403 24.006592 -33.038402 -6.006362 0.525699 0.156146 10.668522 8.805765 -23.080827 -3.319000 -7.125000 0.000000 0.000000 -12.896900 6.877800 11.564000 -3.259264 8.930927 2.694319 95.389241 -10.842442 23.956743 -31.551642 39.705543 -8.892705 0.657500 -3.200321 20.295250 -8.142690 -32.283303 4.918100 7.125000 0.000000 0.000000 23.408000 -58.120000 -7.791800 
-0.521220 18.315716 5.620388 0.052948 -2.964850 1.462282 0.251647 3.633542 3.434860 -14.550279 -9.389227 -3.866302 0.584036 6.642006 21.892705 -1.322984 11.110203 -19.334581 7.815300 -15.981700 -51.894700 -4.501180 -4.260376 1.971505 2.930241 1.877253 -1.662048 0.049838 0.694040 1.409006 0.300164 -0.878829 5.688870 0.000000 0.000000 0.000000 5.199978 3.036340 -6.201046 -10.389713 3.619978 20.494911 0.606976 2.278728 -13.595308 -2.182008 -4.134126 -25.818845 8.750581 -6.510990 27.292257 1.356100 -1.944400 9.222100 4.241756 -7.326346 0.354935 -92.210640 7.130988 29.073362 23.987503 -33.019326 -5.999119 0.526316 0.154088 10.830055 8.872048 -23.100322 -3.348300 -7.125000 0.000000 0.000000 -12.856500 6.852500 11.532300 -3.258512 8.931992 2.697284 95.367975 -10.875030 23.978533 -31.597295 39.734250 -8.909042 0.668973 -3.198785 20.250928 -8.008357 -32.287840 4.856400 7.125000 0.000000 0.000000 23.544800 -58.103100 -7.831100 
-0.520043 18.316402 5.619113 0.037446 -2.941664 1.475991 0.255807 3.632953 3.433021 -14.542617 -9.443653 -3.875999 0.582866 6.644337 21.897056 -1.321174 11.120631 -19.379930 7.837000 -15.998100 -51.973600 -4.496217 -4.258369 1.970390 2.931172 1.877100 -1.662690 0.049722 0.693650 1.408923 0.300068 -0.879223 5.688799 0.000000 0.000000 0.000000 5.214659 3.039003 -6.200342 -10.336245 3.618933 20.474802 0.570347 2.276533 -13.591313 -2.256799 -4.160335 -25.835279 8.813865 -6.544776 27.347527 1.372200 -1.953200 9.238300 4.235712 -7.329098 0.356605 -92.184592 7.090717 29.046046 23.968850 -32.999001 -5.990464 0.525935 0.148128 10.928288 8.802690 -23.177645 -3.329700 -7.125000 0.000000 0.000000 -12.900200 6.788700 11.590000 -3.253662 8.931572 2.701233 95.371725 -10.895721 23.965059 -31.582826 39.718165 -8.906425 0.660044 -3.199317 20.282555 -8.121800 -32.317832 4.913800 7.125000 0.000000 0.000000 23.454900 -58.148800 -7.825100 
-0.519749 18.315323 5.617545 0.031136 -2.921906 1.487227 0.264798 3.633282 3.429648 -14.543340 -9.436134 -3.899754 0.584025 6.645029 21.898449 -1.327080 11.123671 -19.329261 7.841600 -16.001500 -51.990200 -4.488650 -4.256714 1.970645 2.932613 1.876765 -1.663476 0.049552 0.693053 1.408716 0.299886 -0.879877 5.688743 0.000000 0.000000 0.000000 5.199024 3.038385 -6.196282 -10.252066 3.612528 20.457396 0.539324 2.274892 -13.594545 -2.308659 -4.186483 -25.874050 8.806599 -6.569700 27.432153 1.371500 -1.964600 9.261300 4.222422 -7.329446 0.359795 -92.149647 7.050167 29.094092 23.946132 -32.975050 -5.982761 0.528855 0.145919 10.847284 8.821620 -23.274506 -3.348600 -7.125000 0.000000 0.000000 -12.892100 6.694300 11.606500 -3.257676 8.930417 2.703862 95.365878 -10.887216 23.945258 -31.515691 39.655352 -8.874416 0.652173 -3.200296 20.399145 -8.148491 -32.292223 4.922500 7.125000 0.000000 0.000000 23.409600 -58.130400 -7.798300 
-0.519749 18.314931 5.616467 0.020343 -2.903946 1.481505 0.288078 3.636494 3.428923 -14.551161 -9.417576 -3.904917 0.585942 6.641942 21.896860 -1.324301 11.095804 -19.285137 7.827900 -15.991200 -51.940500 -4.465965 -4.255548 1.978604 2.936058 1.875770 -1.664414 0.049106 0.691834 1.408088 0.299484 -0.881388 5.688895 0.000000 0.000000 0.000000 5.104191 3.011510 -6.201164 -10.031723 3.563111 20.463855 0.511604 2.260399 -13.603553 -2.325890 -4.184640 -25.867560 8.698255 -6.538294 27.477576 1.353900 -1.963300 9.263400 4.181410 -7.326933 0.358926 -92.175781 7.047086 29.061581 23.943783 -32.972166 -5.985759 0.532264 0.147303 10.830593 8.957466 -23.326512 -3.410100 -7.125000 0.000000 0.000000 -12.811300 6.627600 11.546800 -3.273900 8.931653 2.707103 95.313446 -10.894209 23.969281 -31.496997 39.629383 -8.863659 0.658939 -3.201718 20.445085 -7.999264 -32.336662 4.859700 7.125000 0.000000 0.000000 23.589200 -58.145400 -7.871200 
